# xmcd CD database file
#
# Track frame offsets:
#	150
#	5193
#	25732
#	45559
#	66374
#	84737
#	101444
#	119647
#	137205
#	149977
#	172364
#
# Disc length: 2562 seconds
#
# Revision: 0
# Processed by: cddbd v1.4PL0 Copyright (c) Steve Scherf et al.
# Submitted via: CDex 1.50
#
DISCID=ad0a000b
DTITLE=Kelly Boy - Jus' Kelly Boy
DYEAR=1998
DGENRE=Rhythmic Soul
TTITLE0=Prelude
TTITLE1=Tears of a Clown
TTITLE2=I Cross My Heart
TTITLE3=Tropical Lady
TTITLE4=Pipeline
TTITLE5=Aloha No Wau I Ko Maka
TTITLE6=King Drop-In
TTITLE7=Another Maui Day
TTITLE8=My Dear Darling
TTITLE9=handyman
TTITLE10=It Won't Be Long
EXTD=YEAR: 1998
EXTT0=
EXTT1=
EXTT2=
EXTT3=
EXTT4=
EXTT5=
EXTT6=
EXTT7=
EXTT8=
EXTT9=
EXTT10=
PLAYORDER=
